<?xml version="1.0" encoding="utf-8"?>
<!-- Generator: Adobe Illustrator 24.2.2, SVG Export Plug-In . SVG Version: 6.00 Build 0)  -->
<svg version="1.1" id="Layer_1" xmlns="http://www.w3.org/2000/svg" xmlns:xlink="http://www.w3.org/1999/xlink" x="0px" y="0px"
	 viewBox="0 0 509.45 373.78" style="enable-background:new 0 0 509.45 373.78;" xml:space="preserve">
<style type="text/css">
	.st0{fill:#FFFFFF;}
	.st1{fill:#EBC2D4;}
	.st2{fill:#F0E087;}
	.st3{fill:#EA72A9;}
	.st4{fill:#E77F40;}
	.st5{fill:#C1E4ED;}
	.st6{fill:#1F5485;}
	.st7{fill:#C5E1D9;}
	.st8{fill:#F08250;}
	.st9{fill:#F1E088;}
	.st10{fill:#878787;}
	.st11{fill:none;}
	.st12{fill:#C5E1D9;stroke:#1F5485;stroke-width:2.0791;stroke-miterlimit:10;}
	.st13{fill:#C5E1D9;stroke:#1F5485;stroke-width:2.1329;stroke-miterlimit:10;}
	.st14{fill:#C5E1D9;stroke:#1F5485;stroke-width:1.9913;stroke-miterlimit:10;}
</style>
<path class="st0" d="M501.98,306.12c-0.6-6.22-3.3-11.22-18.52-26.1c-2.88-2.82-5.94-5.7-8.61-8.11c0.65-3.74,1.49-8.21,2.14-11.71
	c4-21.32,4.69-25.51,2.6-31.22c-2.47-6.69-8.96-11.19-16.15-11.19c-2.87,0-7.21,0-46.34,17.34c-0.92,0.41-2.25,0.9-3.74,1.43
	c0.19-1.45,0.3-2.92,0.31-4.42c0-0.53-0.02-1.05-0.06-1.58c-0.5-5.86-2.08-10.75-4.09-14.79c1.78-2.51,2.87-5.49,3.09-8.62
	l1.02-14.22c0.67-9.26-6.22-17.34-15.46-18.16c-0.8-0.07-3.59-0.3-5.82-0.3c-3.28,0-9.07,0.39-15.28,2.59
	c0.48-1.59,0.74-3.25,0.74-4.94v-15.69c0-3.15-0.86-6.1-2.35-8.63c0.55-1.69,0.84-3.46,0.84-5.27v-12.76c0-1.3-0.15-2.57-0.42-3.78
	c3.07-2.98,5.01-7.12,5.14-11.72l0.38-13.8c0.01-0.2-0.01-0.39-0.01-0.59c0.55,0.05,1.1,0.09,1.65,0.09c0.21,0,0.42,0,0.63-0.01
	l10.17-0.37c9.06-0.33,16.27-7.72,16.38-16.78l0.67-53.3c0.06-4.68-1.82-9.18-5.18-12.44c-3.18-3.07-7.42-4.78-11.82-4.78
	c-0.26,0-0.52,0.01-0.78,0.02l-9.72,0.45c-1.28,0.06-2.52,0.26-3.71,0.58c-1.29-0.48-2.67-0.8-4.09-0.96l-10.54-1.12
	c-0.6-0.06-1.2-0.1-1.8-0.1c-3.99,0-7.87,1.4-10.95,3.99c-0.43,0.37-0.85,0.75-1.24,1.15c-3.11-3.07-7.36-4.92-11.95-4.92
	c-0.12,0-0.23,0-0.35,0l-11.06,0.22c-4.05,0.08-7.79,1.6-10.71,4.1c-2.55-2.22-5.77-3.71-9.37-4.08l-10.02-1.05
	c-0.59-0.06-1.18-0.09-1.77-0.09c-3.91,0-7.72,1.35-10.77,3.85c-1.99-0.8-4.14-1.23-6.34-1.23c-0.98,0-1.98,0.09-2.97,0.26
	l-8.86,1.57c-2.38-1.78-5.24-2.97-8.4-3.3l-10.02-1.05c-0.59-0.06-1.18-0.09-1.77-0.09c-3.91,0-7.72,1.35-10.77,3.85
	c-1.99-0.8-4.14-1.23-6.34-1.23c-0.98,0-1.98,0.09-2.97,0.26l-9.72,1.72c-2.54,0.45-4.86,1.45-6.86,2.87
	c-3.15-4.05-8.05-6.56-13.41-6.56c-0.12,0-0.23,0-0.35,0l-11.06,0.22c-4.59,0.09-8.8,2.03-11.85,5.16
	c-3.14-2.88-7.24-4.49-11.49-4.49c-0.26,0-0.52,0.01-0.78,0.02l-9.72,0.45c-1.28,0.06-2.52,0.26-3.71,0.58
	c-1.29-0.48-2.67-0.8-4.1-0.96l-10.54-1.12c-0.6-0.06-1.2-0.1-1.8-0.1c-3.99,0-7.87,1.4-10.95,3.99c-3.54,2.98-5.72,7.28-6.02,11.9
	l-3.59,54.43c-0.3,4.6,1.28,9.13,4.38,12.55c3.1,3.42,7.46,5.43,12.07,5.57l9.64,0.3c0.18,0.01,0.36,0.01,0.54,0.01
	c2.4,0,4.7-0.5,6.79-1.41c2.17,0.97,4.54,1.49,6.96,1.49c0.21,0,0.42,0,0.63-0.01l0.46-0.02c-0.07,0.53-0.12,1.07-0.14,1.61
	l-1.47,39.98c-7.36,1.82-12.71,8.37-12.9,16.08l-0.38,15.03c-0.02,0.62,0.01,1.24,0.06,1.85c-0.87-0.07-1.55-0.09-1.98-0.1
	l-8.09-0.16c-0.11,0-0.22,0-0.33,0c-9.14,0-16.68,7.25-16.99,16.42l-2.04,59.33c0,0.05,0,0.11,0,0.16c-0.55,0.06-1.1,0.13-1.65,0.19
	c-3.34-3.81-8.01-7.07-14.54-8.39c-2.11-0.42-4.31-0.63-6.75-0.63c-5.64,0-11.41,1.13-16.5,2.13c-2.25,0.44-4.38,0.86-5.82,1.04
	c-1.85,0.23-11.3,1.42-20.5,2.74c-19.28,2.77-25.1,3.61-30.03,9.93c-2.78,3.56-4.05,8.17-3.49,12.65c0.01,0.1,0.02,0.19,0.04,0.29
	c0.91,6.38,4.13,10.2,17.68,26.25c2.24,2.65,5.09,6.03,7.45,8.91c-1.25,3.46-2.62,7.52-3.87,11.44
	c-6.38,20.06-6.61,25.92-4.72,31.46c2.43,7.1,9.06,11.87,16.5,11.87c1.11,0,2.3-0.12,3.39-0.33c5.56-1.1,11.6-1.44,18-1.8
	c4.53-0.26,9.34-0.53,14.32-1.11c2.03,2.12,4.42,4.1,7.23,5.83c6.4,3.93,14.32,6.01,22.9,6.01c3.28,0,6.62-0.3,9.92-0.89
	c7.32-1.32,13.71-3.8,19.34-5.99c1.14-0.44,2.28-0.89,3.42-1.32c19-7.16,37.9-10.79,56.18-10.79c5.25,0,10.5,0.31,15.58,0.92
	c15.81,1.9,32.06,4.57,47.77,7.14c31.47,5.17,64.02,10.5,96.94,10.51c0,0,0,0,0,0c7.9,0,15.68-0.31,23.11-0.93
	c10.57-0.88,26.36-2.94,41.61-7.8c13.84-4.41,24.6-10.36,32.14-17.75c8.65-2.49,16.36-6.78,23.42-10.72
	c4.91-2.74,9.55-5.33,13.56-6.74C498.01,321.62,502.76,314.15,501.98,306.12z M198.46,100.44c-0.01-0.18-0.02-0.36-0.03-0.54
	c0.06,0.01,0.11,0.01,0.17,0.02L198.46,100.44z"/>
<g>
	<g>
		<path class="st1" d="M161.17,82.6L151,82.97V64.13h-11.96l-1.79,18.76l-9.64-0.3l3.59-54.43l10.54,1.12L140.76,53l10.17,0.45
			l1.2-23.7l9.72-0.45L161.17,82.6z"/>
		<path class="st2" d="M200.03,82.97l-2.99-13.53l-10.91,0.45l-5.68,14.2h-9.72l14.8-55.47l11.06-0.22l14.43,54.13L200.03,82.97z"/>
		<path class="st3" d="M219.83,31.84l9.72-1.72l14.58,32.15l2.54-34.76l10.02,1.05l-2.84,53.75l-11.06,0.3L230,59.87l-0.67,24
			l-10.24-1.27L219.83,31.84z"/>
		<path class="st4" d="M268.97,31.84l9.72-1.72l14.58,32.15l2.54-34.76l10.02,1.05l-2.84,53.75l-11.06,0.3l-12.78-22.73l-0.67,24
			l-10.24-1.27L268.97,31.84z"/>
		<path class="st5" d="M342.52,82.97l-2.99-13.53l-10.91,0.45l-5.68,14.2h-9.72l14.8-55.47l11.06-0.22l14.43,54.13L342.52,82.97z"/>
		<path class="st6" d="M393.19,82.6l-10.17,0.37V64.13h-11.96l-1.79,18.76l-9.64-0.3l3.59-54.43l10.54,1.12L372.79,53l10.17,0.45
			l1.2-23.7l9.72-0.45L393.19,82.6z"/>
		<path class="st7" d="M181.51,101.63l-0.38,65.88l-26.94,5.58l0.38-15.03l12.38-1.89l1.98-53.97L181.51,101.63z"/>
		<path class="st7" d="M234.06,170.43l-3.78-17.11l-13.8,0.57l-7.18,17.96h-12.29l18.71-70.13l13.99-0.28l18.24,68.43L234.06,170.43
			z"/>
		<path class="st7" d="M265.44,105.78l12.29-2.17l18.43,40.64l3.21-43.95l12.66,1.32l-3.59,67.95l-13.99,0.38l-16.16-28.73
			l-0.85,30.34l-12.95-1.61L265.44,105.78z"/>
		<path class="st7" d="M364.01,113.82h-19.38l0.66,15.6l13.99,0.38v12.76l-14.27-0.38v14.27h15.78v15.69l-29.68-2.17l1.13-69.56
			l32.13-0.38L364.01,113.82z"/>
		<path class="st3" d="M134.94,191.4c0,0,11.32,0.24,17.21,6.99c3.06,3.77,7.94,9.66,7.54,22.94c-0.47,15.72-3.69,28.13-23.97,29.23
			h-10.92l2.04-59.33L134.94,191.4z"/>
		<path class="st7" d="M195.96,202.72h-16.11l0.55,12.96l11.63,0.31v10.61l-11.87-0.31v11.87h13.12v13.04l-24.67-1.81l0.94-57.83
			l26.72-0.31L195.96,202.72z"/>
		<path class="st6" d="M230.26,205.94c0,0-4.24-0.63-5.89-0.63c-2.99,0-6.52,0.94-6.92,3.38c-0.31,1.73,1.57,3.69,3.93,5.66
			c4.24,3.61,9.12,8.57,9.9,17.68c-0.08,11.47-10.14,18.15-17.68,18.15c-2.59,0-6.92-0.31-8.49-1.57l0.79-12.73
			c0,0,5.19,1.26,8.17,1.26c2.91,0,5.5-1.26,5.5-4.95c0-4.79-1.57-6.76-4.56-9.12c-4.24-3.22-8.72-6.91-8.72-15.64
			c0.39-13.75,14.77-15.95,20.67-15.95c1.65,0,4.32,0.24,4.32,0.24L230.26,205.94z"/>
		<path class="st8" d="M241.92,192.82l21.06-1.02v9.82l-5.19,0.47l-0.55,38.58l5.97-0.16v10.06l-21.92-0.08l-0.08-9.59l4.87-0.08
			l1.02-38.42l-5.19,0.39V192.82z"/>
		<path class="st9" d="M305.22,204.61c0,0-2.67-0.24-4.09-0.24c-5.03,0-16.19,1.34-17.29,12.49c-0.16,1.49-0.16,2.75-0.16,4.08
			c0,11.94,5.03,18.07,11,18.07c5.89,0,6.52-11,6.52-11l-8.01-0.31l-0.16-10.45h18.15c0,0,0.55,3.85,0.55,7.47
			c0,8.25-1.73,22.08-14.54,24.67c-1.57,0.24-2.99,0.39-4.56,0.39c-13.59,0-19.49-11.31-19.49-30.02c0-0.71,0-1.81,0.08-2.59
			c1.34-17.44,15.32-24.83,27.42-24.83c1.26,0,4.64,0.24,5.81,0.31L305.22,204.61z"/>
		<path class="st5" d="M322.49,196.04l10.22-1.81l15.32,33.79l2.67-36.54l10.53,1.1l-2.99,56.5l-11.63,0.32l-13.44-23.89
			l-0.71,25.22l-10.77-1.34L322.49,196.04z"/>
		<path class="st1" d="M395.64,205.94c0,0-4.24-0.63-5.89-0.63c-2.99,0-6.52,0.94-6.91,3.38c-0.31,1.73,1.57,3.69,3.93,5.66
			c4.24,3.61,9.12,8.57,9.9,17.68c-0.08,11.47-10.14,18.15-17.68,18.15c-2.59,0-6.92-0.31-8.49-1.57l0.79-12.73
			c0,0,5.19,1.26,8.17,1.26c2.91,0,5.5-1.26,5.5-4.95c0-4.79-1.57-6.76-4.56-9.12c-4.24-3.22-8.72-6.91-8.72-15.64
			c0.39-13.75,14.77-15.95,20.67-15.95c1.65,0,4.32,0.24,4.32,0.24L395.64,205.94z"/>
		<g>
			<g>
				<path class="st10" d="M136.82,211.66c-2.46,0.25-2.07,4.07,0.39,3.82C139.67,215.22,139.28,211.4,136.82,211.66z"/>
				<path class="st10" d="M151.92,208.73c-2.46,0.25-2.07,4.07,0.39,3.82C154.77,212.3,154.38,208.48,151.92,208.73z"/>
			</g>
			<path class="st10" d="M151.59,217.25c-0.24-0.25-0.7-0.42-1.04-0.24c-2.39,1.31-5.13,1.72-7.8,1.13
				c-0.37-0.08-0.78,0.13-0.97,0.45c-0.21,0.35-0.17,0.72,0.03,1.07c0.07,0.12,0.15,0.23,0.23,0.34c0.01,0.07,0.03,0.14,0.06,0.22
				c0.8,2.17,3.24,2.96,5.33,2.39c2.03-0.56,3.68-2.32,4.34-4.29C151.9,217.93,151.88,217.55,151.59,217.25z"/>
		</g>
	</g>
	<g>
		<g>
			<path class="st11" d="M161.17,82.6L151,82.97V64.13h-11.96l-1.79,18.76l-9.64-0.3l3.59-54.43l10.54,1.12L140.76,53l10.17,0.45
				l1.2-23.7l9.72-0.45L161.17,82.6z"/>
			<path class="st11" d="M200.03,82.97l-2.99-13.53l-10.91,0.45l-5.68,14.2h-9.72l14.8-55.47l11.06-0.22l14.43,54.13L200.03,82.97z"
				/>
			<path class="st11" d="M219.83,31.84l9.72-1.72l14.58,32.15l2.54-34.76l10.02,1.05l-2.84,53.75l-11.06,0.3L230,59.87l-0.67,24
				l-10.24-1.27L219.83,31.84z"/>
			<path class="st11" d="M268.97,31.84l9.72-1.72l14.58,32.15l2.54-34.76l10.02,1.05l-2.84,53.75l-11.06,0.3l-12.78-22.73l-0.67,24
				l-10.24-1.27L268.97,31.84z"/>
			<path class="st11" d="M342.52,82.97l-2.99-13.53l-10.91,0.45l-5.68,14.2h-9.72l14.8-55.47l11.06-0.22l14.43,54.13L342.52,82.97z"
				/>
			<path class="st11" d="M393.19,82.6l-10.17,0.37V64.13h-11.96l-1.79,18.76l-9.64-0.3l3.59-54.43l10.54,1.12L372.79,53l10.17,0.45
				l1.2-23.7l9.72-0.45L393.19,82.6z"/>
			<path class="st11" d="M181.51,101.63l-0.38,65.88l-26.94,5.58l0.38-15.03l12.38-1.89l1.98-53.97L181.51,101.63z"/>
			<path class="st11" d="M234.06,170.43l-3.78-17.11l-13.8,0.57l-7.18,17.96h-12.29l18.71-70.13l13.99-0.28l18.24,68.43
				L234.06,170.43z"/>
			<path class="st11" d="M265.44,105.78l12.29-2.17l18.43,40.64l3.21-43.95l12.66,1.32l-3.59,67.95l-13.99,0.38l-16.16-28.73
				l-0.85,30.34l-12.95-1.61L265.44,105.78z"/>
			<path class="st11" d="M364.01,113.82h-19.38l0.66,15.6l13.99,0.38v12.76l-14.27-0.38v14.27h15.78v15.69l-29.68-2.17l1.13-69.56
				l32.13-0.38L364.01,113.82z"/>
			<path class="st11" d="M134.94,191.4c0,0,11.32,0.24,17.21,6.99c3.06,3.77,7.94,9.66,7.54,22.94
				c-0.47,15.72-3.69,28.13-23.97,29.23h-10.92l2.04-59.33L134.94,191.4z"/>
			<path class="st11" d="M195.96,202.72h-16.11l0.55,12.96l11.63,0.31v10.61l-11.87-0.31v11.87h13.12v13.04l-24.67-1.81l0.94-57.83
				l26.72-0.31L195.96,202.72z"/>
			<path class="st11" d="M230.26,205.94c0,0-4.24-0.63-5.89-0.63c-2.99,0-6.52,0.94-6.92,3.38c-0.31,1.73,1.57,3.69,3.93,5.66
				c4.24,3.61,9.12,8.57,9.9,17.68c-0.08,11.47-10.14,18.15-17.68,18.15c-2.59,0-6.92-0.31-8.49-1.57l0.79-12.73
				c0,0,5.19,1.26,8.17,1.26c2.91,0,5.5-1.26,5.5-4.95c0-4.79-1.57-6.76-4.56-9.12c-4.24-3.22-8.72-6.91-8.72-15.64
				c0.39-13.75,14.77-15.95,20.67-15.95c1.65,0,4.32,0.24,4.32,0.24L230.26,205.94z"/>
			<path class="st11" d="M241.92,192.82l21.06-1.02v9.82l-5.19,0.47l-0.55,38.58l5.97-0.16v10.06l-21.92-0.08l-0.08-9.59l4.87-0.08
				l1.02-38.42l-5.19,0.39V192.82z"/>
			<path class="st11" d="M305.22,204.61c0,0-2.67-0.24-4.09-0.24c-5.03,0-16.19,1.34-17.29,12.49c-0.16,1.49-0.16,2.75-0.16,4.08
				c0,11.94,5.03,18.07,11,18.07c5.89,0,6.52-11,6.52-11l-8.01-0.31l-0.16-10.45h18.15c0,0,0.55,3.85,0.55,7.47
				c0,8.25-1.73,22.08-14.54,24.67c-1.57,0.24-2.99,0.39-4.56,0.39c-13.59,0-19.49-11.31-19.49-30.02c0-0.71,0-1.81,0.08-2.59
				c1.34-17.44,15.32-24.83,27.42-24.83c1.26,0,4.64,0.24,5.81,0.31L305.22,204.61z"/>
			<path class="st11" d="M322.49,196.04l10.22-1.81l15.32,33.79l2.67-36.54l10.53,1.1l-2.99,56.5l-11.63,0.32l-13.44-23.89
				l-0.71,25.22l-10.77-1.34L322.49,196.04z"/>
			<path class="st11" d="M395.64,205.94c0,0-4.24-0.63-5.89-0.63c-2.99,0-6.52,0.94-6.91,3.38c-0.31,1.73,1.57,3.69,3.93,5.66
				c4.24,3.61,9.12,8.57,9.9,17.68c-0.08,11.47-10.14,18.15-17.68,18.15c-2.59,0-6.92-0.31-8.49-1.57l0.79-12.73
				c0,0,5.19,1.26,8.17,1.26c2.91,0,5.5-1.26,5.5-4.95c0-4.79-1.57-6.76-4.56-9.12c-4.24-3.22-8.72-6.91-8.72-15.64
				c0.39-13.75,14.77-15.95,20.67-15.95c1.65,0,4.32,0.24,4.32,0.24L395.64,205.94z"/>
			<g>
				<g>
					<path class="st11" d="M136.82,211.66c-2.46,0.25-2.07,4.07,0.39,3.82C139.67,215.22,139.28,211.4,136.82,211.66z"/>
					<path class="st11" d="M151.92,208.73c-2.46,0.25-2.07,4.07,0.39,3.82C154.77,212.3,154.38,208.48,151.92,208.73z"/>
				</g>
				<path class="st11" d="M151.59,217.25c-0.24-0.25-0.7-0.42-1.04-0.24c-2.39,1.31-5.13,1.72-7.8,1.13
					c-0.37-0.08-0.78,0.13-0.97,0.45c-0.21,0.35-0.17,0.72,0.03,1.07c0.07,0.12,0.15,0.23,0.23,0.34c0.01,0.07,0.03,0.14,0.06,0.22
					c0.8,2.17,3.24,2.96,5.33,2.39c2.03-0.56,3.68-2.32,4.34-4.29C151.9,217.93,151.88,217.55,151.59,217.25z"/>
			</g>
		</g>
		<path class="st12" d="M457.07,279.36c-1.84-0.27,7.66-41.48,6.56-44.48c-0.45-1.22-36.92,14.61-39.64,15.81
			c-6.76,3-19.6,5.95-24.25,11.36c-6.6,7.68-1.02,21.56,1.77,30.06c5.11,15.58,18.41,35.65,38.96,34.7
			c15.77-0.72,30.05-13.54,44.33-18.57C488.11,307.07,458.91,279.63,457.07,279.36z"/>
		<path class="st13" d="M52.97,303.22c1.55-1.2-27.11-32.32-27.57-35.53c-0.17-1.37,36.55-6,39.2-6.33
			c6.66-0.81,17.33-4.03,23.65-2.75c10.11,2.04,10.44,17.79,9.73,28.31c-0.37,5.57-1.72,11.15-3.07,16.71
			c-2.21,9.12-9.75,25.3-5.63,33.46c-15.62,4.87-31.87,2.81-47.59,5.92C38.12,343.73,51.43,304.42,52.97,303.22z"/>
		<path class="st14" d="M447.85,303.6c-3.02-9.49-9.58-39.79-19.16-44.18c-7.99-3.66-22.25,9.54-29.52,12.2
			c-8.37,3.06-17.09,6.16-25.86,7.91c-78.08,15.56-158.6-21.56-238.42-14.93c-16.9,1.4-34.02,3.21-50.58,6.02
			c-1.47,0.25-3.02,0.54-4.09,1.38c-1.39,1.09-1.64,2.82-1.8,4.41c-1.87,18.63-0.95,33.9,3.69,52.53
			c1.76,7.07,4.16,14.79,11.35,19.2c5.92,3.64,13.91,4.12,20.91,2.87c7-1.26,13.32-4.05,19.77-6.48
			c24.69-9.31,52.2-14.16,79.79-10.84c54.71,6.57,109.18,21.24,164.39,16.66C408.97,347.79,458.39,336.68,447.85,303.6z"/>
		<g>
			<g>
				<path class="st6" d="M110.55,298.29c0,0-0.51,0.17-0.88,0.25c-1.74,0.37-7.07,0.88-8.37-5.89c-1.22-6.87,2.94-8.65,5.04-9.09
					c0.73-0.15,1.47-0.14,1.47-0.14l0.59,2.79c-0.58,0.06-0.74,0.09-0.88,0.12c-2.99,0.63-4.12,2.26-3.4,5.69
					c0.94,4.86,5.62,3.07,5.62,3.07L110.55,298.29z"/>
				<path class="st6" d="M122.97,281.57c0,0,0.35,5.34,0.45,7.93c0.14,2.54-0.62,6.73-3.86,7.42c-4.81,0.63-5.48-5.98-5.48-5.98
					l-0.81-8.13l2.78-0.36c0,0,0.73,7.02,0.87,8.15c0.11,0.86,0.66,3.22,2.3,3.01c1.19-0.46,1.22-2.98,1.24-3.32l-0.42-8.56
					L122.97,281.57z"/>
				<path class="st6" d="M135.78,283.03l-2.6,0.34l0.33,12.22l-2.9,0.18l-0.66-12.15l-2.77,0.27l-0.44-2.85l9.06-0.84L135.78,283.03
					z"/>
				<path class="st6" d="M147.73,282.72l-4.23,0.06l0.2,3.81l3.05,0.04l0.04,2.79l-3.12-0.04l0.04,2.7l3.45-0.05l0.05,3.42
					l-6.49-0.38l0.03-15.19l7.01-0.18L147.73,282.72z"/>
				<path class="st6" d="M160.79,280.25c0,0,3.6-0.18,5.84,0.59c0,0,2.56,0.67,2.48,3.97c-0.09,4.25-4.84,4.86-4.84,4.86l-0.55,5.86
					l-2.93,0.02L160.79,280.25z"/>
				<path class="st6" d="M182,289.25c-0.45,5.18-3.28,6.82-5.28,6.71c-1.9-0.1-4.42-1.57-4.14-7.23c0.01-0.27,0.03-0.6,0.07-0.91
					l0,0.02c0.5-6.52,4.48-6.8,4.97-6.77C180.82,281.24,182.37,284.04,182,289.25z"/>
				<path class="st6" d="M192.71,285.32c0,0-1.1-0.23-1.54-0.26c-0.78-0.05-1.72,0.15-1.86,0.78c-0.11,0.45,0.35,0.99,0.94,1.54
					c1.06,1.01,2.26,2.39,2.32,4.79c-0.2,3.01-2.94,4.6-4.92,4.48c-0.68-0.04-1.81-0.19-2.2-0.54l0.41-3.32c0,0,1.34,0.41,2.12,0.46
					c0.76,0.05,1.46-0.24,1.52-1.21c0.08-1.26-0.31-1.8-1.05-2.46c-1.06-0.91-2.18-1.95-2.04-4.24c0.32-3.6,4.12-3.95,5.67-3.86
					c0.43,0.03,1.13,0.13,1.13,0.13L192.71,285.32z"/>
				<path class="st6" d="M198.15,282.13l2.9-0.01l-1.41,15.43l-2.98-0.2L198.15,282.13z"/>
				<path class="st6" d="M213.22,285.96l-2.63-0.01l-1.33,12.14l-2.9-0.22l1-12.13l-2.79-0.11l-0.05-2.88l9.09,0.4L213.22,285.96z"
					/>
				<path class="st6" d="M218.04,283.6l2.9,0.03l-1.66,15.41l-2.98-0.25L218.04,283.6z"/>
				<path class="st6" d="M230.54,299.97l-3.25-0.24l-2.55-15.63l3.24,0.59l1.5,9.58l3.43-9.07l2.97,0.4L230.54,299.97z"/>
				<path class="st6" d="M246.7,289.01l-4.21-0.43l-0.25,3.81l3.03,0.39l-0.28,2.77l-3.09-0.4l-0.28,2.69l3.42,0.35l-0.35,3.4
					l-6.39-1.13l1.8-15.07l6.98,0.64L246.7,289.01z"/>
				<path class="st6" d="M265.43,303.73c0,0-0.54,0-0.91-0.05c-1.76-0.21-6.98-1.44-6.04-8.26c1.05-6.9,5.56-7.25,7.69-7
					c0.74,0.09,1.43,0.34,1.43,0.34l-0.34,2.83c-0.57-0.13-0.73-0.15-0.87-0.17c-3.03-0.36-4.63,0.82-5.04,4.3
					c-0.67,4.91,4.34,4.72,4.34,4.72L265.43,303.73z"/>
				<path class="st6" d="M276.72,305.01l-0.34-3.81l-3-0.26l-2.05,3.69l-2.66-0.34l6-14.66l3.04,0.33l2.05,15.32L276.72,305.01z"/>
				<path class="st6" d="M286.08,291.03c0,0,3.54,0.58,4.32,0.81c0.5,0.15,2.99,1.15,2.28,4.42c-0.56,2.48-2.56,3.11-2.56,3.11
					l2.38,7.73l-3.29-0.46l-1.87-5.62l-1.18,5.4l-2.72-0.49L286.08,291.03z"/>
				<path class="st6" d="M300.7,292.74c0,0,2.94,0.44,4.24,2.4c0.67,1.09,1.74,2.79,1.19,6.23c-0.65,4.08-1.91,7.2-7.23,6.8
					l-2.84-0.37l2.54-15.38L300.7,292.74z"/>
				<path class="st6" d="M316.88,298.62c0,0-1.09-0.3-1.52-0.35c-0.78-0.09-1.73,0.04-1.91,0.66c-0.14,0.44,0.29,1.01,0.85,1.6
					c0.99,1.08,2.11,2.52,2.03,4.92c-0.38,2.99-3.21,4.41-5.18,4.18c-0.68-0.08-1.79-0.3-2.16-0.68l0.6-3.29
					c0,0,1.31,0.49,2.09,0.58c0.76,0.09,1.47-0.16,1.59-1.12c0.15-1.25-0.2-1.81-0.9-2.52c-1-0.97-2.06-2.08-1.79-4.35
					c0.53-3.57,4.35-3.69,5.89-3.51c0.43,0.05,1.12,0.2,1.12,0.2L316.88,298.62z"/>
				<path class="st6" d="M336.12,308.69l0.91,1.67l-1.87,1.99l-1.06-1.56c-0.54,0.3-1.54,0.78-2.61,0.68
					c-0.82-0.07-2.09-0.68-2.73-1.69c-0.41-0.78-0.65-1.84-0.58-2.54c0.15-1.68,1.9-3.75,1.9-3.75c-0.12-0.24-0.21-0.62-0.33-0.98
					c-0.19-0.64-0.24-1.24-0.19-1.8c0.19-2.14,2.21-3.51,3.67-3.38c0.55,0.05,1.09,0.3,1.48,0.79c0.6,0.67,0.8,1.52,0.72,2.36
					c-0.11,1.27-0.81,2.6-1.58,3.38l1.02,2.24l1.67-1.28l1.43,2.36L336.12,308.69z"/>
				<path class="st6" d="M349.74,297.97c0,0,3.6-0.19,5.84,0.57c0,0,2.56,0.67,2.48,3.97c-0.08,4.25-4.83,4.87-4.83,4.87l-0.53,5.86
					l-2.93,0.02L349.74,297.97z"/>
				<path class="st6" d="M362.84,298.22c0,0,3.59,0.06,4.4,0.18c0.52,0.08,3.12,0.71,2.89,4.05c-0.2,2.54-2.09,3.45-2.09,3.45
					l3.47,7.3l-3.32,0.02l-2.66-5.29l-0.39,5.51l-2.77-0.09L362.84,298.22z"/>
				<path class="st6" d="M375.1,297.97l2.87-0.37l0.48,15.49l-2.99,0.17L375.1,297.97z"/>
				<path class="st6" d="M382.32,298.51l2.61-0.76l4.97,8.37l-0.35-9.61l2.78-0.01l0.84,14.82l-3.03,0.42l-4.19-5.85l0.54,6.6
					l-2.85-0.04L382.32,298.51z"/>
				<path class="st6" d="M404.22,297.12l-2.54,0.67l1.85,12.08l-2.86,0.54l-2.17-11.98l-2.72,0.62l-0.79-2.77l8.89-1.96
					L404.22,297.12z"/>
				<path class="st6" d="M414.45,295.35c0,0-1.12,0.13-1.54,0.24c-0.76,0.2-1.59,0.68-1.52,1.33c0.04,0.46,0.65,0.83,1.38,1.17
					c1.32,0.63,2.89,1.55,3.71,3.81c0.76,2.92-1.34,5.29-3.25,5.8c-0.66,0.18-1.78,0.39-2.26,0.18l-0.67-3.28
					c0,0,1.4-0.03,2.16-0.24c0.74-0.2,1.31-0.69,1.06-1.63c-0.33-1.21-0.86-1.61-1.77-2c-1.3-0.53-2.68-1.16-3.27-3.37
					c-0.83-3.51,2.66-5.05,4.16-5.45c0.42-0.11,1.11-0.23,1.11-0.23L414.45,295.35z"/>
			</g>
		</g>
		<g>
			<g>
				<path class="st6" d="M130.77,310.84l-2.56,0.59l1.5,12.12l-2.87,0.45l-1.82-12.03l-2.73,0.54l-0.71-2.79l8.94-1.71
					L130.77,310.84z"/>
				<path class="st6" d="M144.85,314.59c0.37,5.19-2.17,7.24-4.16,7.45c-1.89,0.2-4.61-0.86-5.21-6.5
					c-0.03-0.27-0.06-0.59-0.08-0.91l0,0.02c-0.53-6.52,3.36-7.41,3.85-7.46C142.43,306.86,144.4,309.39,144.85,314.59z"/>
				<path class="st6" d="M166.78,320.58l-0.41-7.89l-3.1,3.15l-2.67-2.59l-0.15,7.72l-3.26,0.08l0.58-15.71l5.58,5.88l6.04-6.37
					l0.59,15.44L166.78,320.58z"/>
				<path class="st6" d="M181.98,320.53l-0.76-3.75l-3.01,0.07l-1.64,3.89l-2.68-0.05l4.37-15.23l3.05,0l3.71,15.01L181.98,320.53z"
					/>
				<path class="st6" d="M193.5,305.76l-0.85,4.85l3.52-4.51l3.65-0.22l-5.91,7.98l4.41,7.29l-4.13-0.11l-2.27-4.48l-0.9,4.7
					l-2.86-0.58l1.8-14.8L193.5,305.76z"/>
				<path class="st6" d="M210.2,309.76l-4.22-0.33l-0.15,3.82l3.04,0.32l-0.22,2.78l-3.1-0.32l-0.21,2.69l3.44,0.27l-0.27,3.42
					l-6.42-0.98l1.43-15.12l7,0.46L210.2,309.76z"/>
				<path class="st6" d="M231,311.9l-2.62-0.1l-1.75,12.1l-2.89-0.32l1.41-12.09l-2.78-0.2l0.05-2.88l9.08,0.71L231,311.9z"/>
				<path class="st6" d="M242.52,325.62l-2.8-0.25l0.65-5.16l-3.27-0.41l-1.13,5.08l-2.63-0.41l2.85-14.77l2.85,0.67l-1.08,6.45
					l2.77,0.47l1.14-6.45l2.68,0.21L242.52,325.62z"/>
				<path class="st6" d="M255.96,315.04l-4.19-0.56l-0.36,3.8l3.02,0.49l-0.37,2.76l-3.08-0.49l-0.36,2.68l3.41,0.46l-0.45,3.39
					l-6.36-1.33l2.26-15.02l6.96,0.85L255.96,315.04z"/>
				<path class="st6" d="M275.64,330.84l-2.62-5.89l-4.16,4.85l-1.35-15.84l3.37,0.96l0.35,7.5l2.77-2.58l1.65,3.79l3.37-7.6
					l3.78,0.41L275.64,330.84z"/>
				<path class="st6" d="M293.74,325.53c-0.85,5.13-3.79,6.54-5.78,6.29c-1.88-0.24-4.29-1.9-3.57-7.53
					c0.03-0.27,0.08-0.59,0.14-0.9l0,0.02c1-6.47,4.99-6.43,5.48-6.37C293.17,317.45,294.5,320.37,293.74,325.53z"/>
				<path class="st6" d="M299.44,318.04c0,0,3.55,0.52,4.34,0.73c0.5,0.14,3.01,1.1,2.36,4.39c-0.52,2.49-2.51,3.16-2.51,3.16
					l2.51,7.69l-3.3-0.4l-1.97-5.59l-1.09,5.42l-2.73-0.44L299.44,318.04z"/>
				<path class="st6" d="M313.29,331.52l2.9,0.48l-0.26,3.21l-5.94-0.7l1.34-14.98l2.77,0.28L313.29,331.52z"/>
				<path class="st6" d="M324.37,320.38c0,0,2.96,0.3,4.36,2.19c0.72,1.05,1.88,2.7,1.49,6.16c-0.45,4.1-1.56,7.29-6.89,7.15
					l-2.86-0.23l1.78-15.49L324.37,320.38z"/>
				<path class="st6" d="M348.4,325.59c0,0-1.11-0.2-1.54-0.22c-0.78-0.03-1.72,0.19-1.85,0.82c-0.1,0.45,0.38,0.98,0.98,1.52
					c1.08,0.99,2.31,2.33,2.43,4.73c-0.13,3.01-2.83,4.67-4.81,4.6c-0.68-0.02-1.81-0.15-2.21-0.49l0.32-3.33
					c0,0,1.35,0.38,2.13,0.41c0.76,0.03,1.45-0.28,1.49-1.25c0.04-1.26-0.35-1.79-1.11-2.43c-1.08-0.88-2.22-1.89-2.14-4.18
					c0.23-3.6,4.02-4.05,5.57-3.99c0.43,0.02,1.13,0.1,1.13,0.1L348.4,325.59z"/>
				<path class="st6" d="M362.24,337.33l-0.24-7.9l-3.16,3.09l-2.61-2.65l-0.32,7.72l-3.26,0.01l0.92-15.7l5.45,6l6.18-6.24
					l0.25,15.45L362.24,337.33z"/>
				<path class="st6" d="M370.1,321.92l2.88-0.33l0.32,15.5l-2.99,0.13L370.1,321.92z"/>
				<path class="st6" d="M381.25,333.13l2.94-0.04l0.31,3.2l-5.97,0.37l-1.34-14.98l2.78-0.22L381.25,333.13z"/>
				<path class="st6" d="M395.01,321.99l-4.17,0.72l0.79,3.74l3.02-0.44l0.47,2.74l-3.08,0.45l0.46,2.66l3.39-0.58l0.58,3.37
					l-6.46,0.63l-2.33-15l6.9-1.27L395.01,321.99z"/>
			</g>
		</g>
	</g>
</g>
</svg>
