<?xml version="1.0" encoding="utf-8"?>
<!-- Generator: Adobe Illustrator 25.1.0, SVG Export Plug-In . SVG Version: 6.00 Build 0)  -->
<svg version="1.1" id="Layer_1" xmlns="http://www.w3.org/2000/svg" xmlns:xlink="http://www.w3.org/1999/xlink" x="0px" y="0px"
	 viewBox="0 0 509.5 373.8" style="enable-background:new 0 0 509.5 373.8;" xml:space="preserve">
<style type="text/css">
	.st0{fill:#FFFFFF;}
	.st1{fill:#EBC2D4;}
	.st2{fill:#F0E087;}
	.st3{fill:#EA70A7;}
	.st4{fill:#E67F40;}
	.st5{fill:#C0E4ED;}
	.st6{fill:#1F5384;}
	.st7{fill:#C4E1D9;}
	.st8{fill:#EF8250;}
	.st9{fill:#F1E188;}
	.st10{fill:#878787;}
	.st11{fill:none;}
	.st12{fill:#C4E1D9;stroke:#1F5384;stroke-width:2.0772;stroke-miterlimit:10;}
	.st13{fill:#C4E1D9;stroke:#1F5384;stroke-width:2.1309;stroke-miterlimit:10;}
	.st14{fill:#C4E1D9;stroke:#1F5384;stroke-width:1.9894;stroke-miterlimit:10;}
</style>
<path class="st0" d="M502,306.1c-0.6-6.2-3.3-11.2-18.5-26.1c-2.9-2.8-5.9-5.7-8.6-8.1c0.6-3.7,1.5-8.2,2.1-11.7
	c4-21.3,4.7-25.5,2.6-31.2c-2.5-6.7-9-11.2-16.1-11.2c-2.9,0-7.2,0-46.3,17.3c-0.9,0.4-2.2,0.9-3.7,1.4c0.2-1.4,0.3-2.9,0.3-4.4
	c0-0.5,0-1.1-0.1-1.6c-0.5-5.9-2.1-10.8-4.1-14.8c1.8-2.5,2.9-5.5,3.1-8.6l1-14.2c0.7-9.3-6.2-17.3-15.5-18.2
	c-0.8-0.1-3.6-0.3-5.8-0.3c-3.3,0-9.1,0.4-15.3,2.6c0.5-1.6,0.7-3.2,0.7-4.9v-15.7c0-3.1-0.9-6.1-2.4-8.6c0.5-1.7,0.8-3.5,0.8-5.3
	v-12.8c0-1.3-0.1-2.6-0.4-3.8c3.1-3,5-7.1,5.1-11.7l0.4-13.8c0-0.2,0-0.4,0-0.6c0.5,0.1,1.1,0.1,1.6,0.1c0.2,0,0.4,0,0.6,0l10.2-0.4
	c9.1-0.3,16.3-7.7,16.4-16.8l0.7-53.3c0.1-4.7-1.8-9.2-5.2-12.4c-3.2-3.1-7.4-4.8-11.8-4.8c-0.3,0-0.5,0-0.8,0l-9.7,0.4
	c-1.3,0.1-2.5,0.3-3.7,0.6c-1.3-0.5-2.7-0.8-4.1-1l-10.5-1.1c-0.6-0.1-1.2-0.1-1.8-0.1c-4,0-7.9,1.4-11,4c-0.4,0.4-0.9,0.8-1.2,1.2
	c-3.1-3.1-7.4-4.9-12-4.9c-0.1,0-0.2,0-0.4,0l-11.1,0.2c-4,0.1-7.8,1.6-10.7,4.1c-2.5-2.2-5.8-3.7-9.4-4.1l-10-1.1
	c-0.6-0.1-1.2-0.1-1.8-0.1c-3.9,0-7.7,1.4-10.8,3.8c-2-0.8-4.1-1.2-6.3-1.2c-1,0-2,0.1-3,0.3l-8.9,1.6c-2.4-1.8-5.2-3-8.4-3.3
	l-10-1.1c-0.6-0.1-1.2-0.1-1.8-0.1c-3.9,0-7.7,1.4-10.8,3.9c-2-0.8-4.1-1.2-6.3-1.2c-1,0-2,0.1-3,0.3l-9.7,1.7
	c-2.5,0.4-4.9,1.5-6.9,2.9c-3.1-4.1-8.1-6.6-13.4-6.6c-0.1,0-0.2,0-0.4,0l-11.1,0.2c-4.6,0.1-8.8,2-11.9,5.2
	c-3.1-2.9-7.2-4.5-11.5-4.5c-0.3,0-0.5,0-0.8,0l-9.7,0.4c-1.3,0.1-2.5,0.3-3.7,0.6c-1.3-0.5-2.7-0.8-4.1-1L133,11.3
	c-0.6-0.1-1.2-0.1-1.8-0.1c-4,0-7.9,1.4-10.9,4c-3.5,3-5.7,7.3-6,11.9l-3.6,54.4c-0.3,4.6,1.3,9.1,4.4,12.6
	c3.1,3.4,7.5,5.4,12.1,5.6l9.6,0.3c0.2,0,0.4,0,0.5,0c2.4,0,4.7-0.5,6.8-1.4c2.2,1,4.5,1.5,7,1.5c0.2,0,0.4,0,0.6,0l0.5,0
	c-0.1,0.5-0.1,1.1-0.1,1.6l-1.5,40c-7.4,1.8-12.7,8.4-12.9,16.1l-0.4,15c0,0.6,0,1.2,0.1,1.9c-0.9-0.1-1.6-0.1-2-0.1l-8.1-0.2
	c-0.1,0-0.2,0-0.3,0c-9.1,0-16.7,7.2-17,16.4l-2,59.3c0,0.1,0,0.1,0,0.2c-0.6,0.1-1.1,0.1-1.7,0.2c-3.3-3.8-8-7.1-14.5-8.4
	c-2.1-0.4-4.3-0.6-6.8-0.6c-5.6,0-11.4,1.1-16.5,2.1c-2.2,0.4-4.4,0.9-5.8,1c-1.8,0.2-11.3,1.4-20.5,2.7c-19.3,2.8-25.1,3.6-30,9.9
	c-2.8,3.6-4.1,8.2-3.5,12.6c0,0.1,0,0.2,0,0.3c0.9,6.4,4.1,10.2,17.7,26.2c2.2,2.6,5.1,6,7.5,8.9c-1.2,3.5-2.6,7.5-3.9,11.4
	c-6.4,20.1-6.6,25.9-4.7,31.5c2.4,7.1,9.1,11.9,16.5,11.9c1.1,0,2.3-0.1,3.4-0.3c5.6-1.1,11.6-1.4,18-1.8c4.5-0.3,9.3-0.5,14.3-1.1
	c2,2.1,4.4,4.1,7.2,5.8c6.4,3.9,14.3,6,22.9,6c3.3,0,6.6-0.3,9.9-0.9c7.3-1.3,13.7-3.8,19.3-6c1.1-0.4,2.3-0.9,3.4-1.3
	c19-7.2,37.9-10.8,56.2-10.8c5.2,0,10.5,0.3,15.6,0.9c15.8,1.9,32.1,4.6,47.8,7.1c31.5,5.2,64,10.5,96.9,10.5l0,0
	c7.9,0,15.7-0.3,23.1-0.9c10.6-0.9,26.4-2.9,41.6-7.8c13.8-4.4,24.6-10.4,32.1-17.8c8.6-2.5,16.4-6.8,23.4-10.7
	c4.9-2.7,9.5-5.3,13.6-6.7C498,321.6,502.8,314.1,502,306.1z M198.5,100.4c0-0.2,0-0.4,0-0.5c0.1,0,0.1,0,0.2,0L198.5,100.4z"/>
<g>
	<g>
		<path class="st1" d="M161.3,82.7l-10.2,0.4V64.3h-12L137.4,83l-9.6-0.3l3.6-54.4l10.5,1.1l-1,23.7l10.2,0.4l1.2-23.7l9.7-0.4
			L161.3,82.7z"/>
		<path class="st2" d="M200.1,83.1l-3-13.5L186.2,70l-5.7,14.2h-9.7l14.8-55.4l11.1-0.2l14.4,54.1L200.1,83.1z"/>
		<path class="st3" d="M219.9,32l9.7-1.7l14.6,32.1l2.5-34.7l10,1l-2.8,53.7l-11.1,0.3L230,60l-0.7,24l-10.2-1.3L219.9,32z"/>
		<path class="st4" d="M269,32l9.7-1.7l14.6,32.1l2.5-34.7l10,1l-2.8,53.7l-11.1,0.3L279.1,60l-0.7,24l-10.2-1.3L269,32z"/>
		<path class="st5" d="M342.4,83.1l-3-13.5L328.5,70l-5.7,14.2h-9.7l14.8-55.4l11.1-0.2l14.4,54.1L342.4,83.1z"/>
		<path class="st6" d="M393.1,82.7l-10.2,0.4V64.3h-12L369.2,83l-9.6-0.3l3.6-54.4l10.5,1.1l-1,23.7l10.2,0.4l1.2-23.7l9.7-0.4
			L393.1,82.7z"/>
		<path class="st7" d="M181.6,101.7l-0.4,65.8l-26.9,5.6l0.4-15l12.4-1.9l2-53.9L181.6,101.7z"/>
		<path class="st7" d="M234.1,170.5l-3.8-17.1l-13.8,0.6l-7.2,17.9h-12.3l18.7-70.1l14-0.3l18.2,68.4L234.1,170.5z"/>
		<path class="st7" d="M265.4,105.9l12.3-2.2l18.4,40.6l3.2-43.9l12.7,1.3l-3.6,67.9l-14,0.4l-16.1-28.7l-0.8,30.3l-12.9-1.6
			L265.4,105.9z"/>
		<path class="st7" d="M363.9,113.9h-19.4l0.7,15.6l14,0.4v12.7l-14.3-0.4v14.3h15.8v15.7L331,170l1.1-69.5l32.1-0.4L363.9,113.9z"
			/>
		<path class="st3" d="M135.1,191.4c0,0,11.3,0.2,17.2,7c3.1,3.8,7.9,9.7,7.5,22.9c-0.5,15.7-3.7,28.1-23.9,29.2h-10.9l2-59.3
			L135.1,191.4z"/>
		<path class="st7" d="M196,202.7h-16.1l0.5,13l11.6,0.3v10.6l-11.9-0.3v11.9h13.1v13l-24.7-1.8l0.9-57.8l26.7-0.3L196,202.7z"/>
		<path class="st6" d="M230.3,205.9c0,0-4.2-0.6-5.9-0.6c-3,0-6.5,0.9-6.9,3.4c-0.3,1.7,1.6,3.7,3.9,5.7c4.2,3.6,9.1,8.6,9.9,17.7
			c-0.1,11.5-10.1,18.1-17.7,18.1c-2.6,0-6.9-0.3-8.5-1.6l0.8-12.7c0,0,5.2,1.3,8.2,1.3c2.9,0,5.5-1.3,5.5-4.9
			c0-4.8-1.6-6.8-4.6-9.1c-4.2-3.2-8.7-6.9-8.7-15.6c0.4-13.7,14.8-15.9,20.6-15.9c1.6,0,4.3,0.2,4.3,0.2L230.3,205.9z"/>
		<path class="st8" d="M241.9,192.8l21-1v9.8l-5.2,0.5l-0.5,38.5l6-0.2v10l-21.9-0.1l-0.1-9.6l4.9-0.1l1-38.4l-5.2,0.4V192.8z"/>
		<path class="st9" d="M305.2,204.6c0,0-2.7-0.2-4.1-0.2c-5,0-16.2,1.3-17.3,12.5c-0.2,1.5-0.2,2.7-0.2,4.1c0,11.9,5,18.1,11,18.1
			c5.9,0,6.5-11,6.5-11l-8-0.3l-0.2-10.4h18.1c0,0,0.5,3.8,0.5,7.5c0,8.2-1.7,22.1-14.5,24.7c-1.6,0.2-3,0.4-4.6,0.4
			c-13.6,0-19.5-11.3-19.5-30c0-0.7,0-1.8,0.1-2.6c1.3-17.4,15.3-24.8,27.4-24.8c1.3,0,4.6,0.2,5.8,0.3L305.2,204.6z"/>
		<path class="st5" d="M322.4,196l10.2-1.8l15.3,33.8l2.7-36.5l10.5,1.1l-3,56.4l-11.6,0.3l-13.4-23.9l-0.7,25.2l-10.8-1.3
			L322.4,196z"/>
		<path class="st1" d="M395.5,205.9c0,0-4.2-0.6-5.9-0.6c-3,0-6.5,0.9-6.9,3.4c-0.3,1.7,1.6,3.7,3.9,5.7c4.2,3.6,9.1,8.6,9.9,17.7
			c-0.1,11.5-10.1,18.1-17.7,18.1c-2.6,0-6.9-0.3-8.5-1.6l0.8-12.7c0,0,5.2,1.3,8.2,1.3c2.9,0,5.5-1.3,5.5-4.9
			c0-4.8-1.6-6.8-4.6-9.1c-4.2-3.2-8.7-6.9-8.7-15.6c0.4-13.7,14.8-15.9,20.6-15.9c1.6,0,4.3,0.2,4.3,0.2L395.5,205.9z"/>
		<g>
			<g>
				<path class="st10" d="M136.9,211.6c-2.5,0.3-2.1,4.1,0.4,3.8C139.8,215.2,139.4,211.4,136.9,211.6z"/>
				<path class="st10" d="M152,208.7c-2.5,0.3-2.1,4.1,0.4,3.8C154.9,212.3,154.5,208.5,152,208.7z"/>
			</g>
			<path class="st10" d="M151.7,217.2c-0.2-0.2-0.7-0.4-1-0.2c-2.4,1.3-5.1,1.7-7.8,1.1c-0.4-0.1-0.8,0.1-1,0.4
				c-0.2,0.4-0.2,0.7,0,1.1c0.1,0.1,0.1,0.2,0.2,0.3c0,0.1,0,0.1,0.1,0.2c0.8,2.2,3.2,3,5.3,2.4c2-0.6,3.7-2.3,4.3-4.3
				C152,217.9,152,217.5,151.7,217.2z"/>
		</g>
	</g>
	<g>
		<g>
			<path class="st11" d="M161.3,82.7l-10.2,0.4V64.3h-12L137.4,83l-9.6-0.3l3.6-54.4l10.5,1.1l-1,23.7l10.2,0.4l1.2-23.7l9.7-0.4
				L161.3,82.7z"/>
			<path class="st11" d="M200.1,83.1l-3-13.5L186.2,70l-5.7,14.2h-9.7l14.8-55.4l11.1-0.2l14.4,54.1L200.1,83.1z"/>
			<path class="st11" d="M219.9,32l9.7-1.7l14.6,32.1l2.5-34.7l10,1l-2.8,53.7l-11.1,0.3L230,60l-0.7,24l-10.2-1.3L219.9,32z"/>
			<path class="st11" d="M269,32l9.7-1.7l14.6,32.1l2.5-34.7l10,1l-2.8,53.7l-11.1,0.3L279.1,60l-0.7,24l-10.2-1.3L269,32z"/>
			<path class="st11" d="M342.4,83.1l-3-13.5L328.5,70l-5.7,14.2h-9.7l14.8-55.4l11.1-0.2l14.4,54.1L342.4,83.1z"/>
			<path class="st11" d="M393.1,82.7l-10.2,0.4V64.3h-12L369.2,83l-9.6-0.3l3.6-54.4l10.5,1.1l-1,23.7l10.2,0.4l1.2-23.7l9.7-0.4
				L393.1,82.7z"/>
			<path class="st11" d="M181.6,101.7l-0.4,65.8l-26.9,5.6l0.4-15l12.4-1.9l2-53.9L181.6,101.7z"/>
			<path class="st11" d="M234.1,170.5l-3.8-17.1l-13.8,0.6l-7.2,17.9h-12.3l18.7-70.1l14-0.3l18.2,68.4L234.1,170.5z"/>
			<path class="st11" d="M265.4,105.9l12.3-2.2l18.4,40.6l3.2-43.9l12.7,1.3l-3.6,67.9l-14,0.4l-16.1-28.7l-0.8,30.3l-12.9-1.6
				L265.4,105.9z"/>
			<path class="st11" d="M363.9,113.9h-19.4l0.7,15.6l14,0.4v12.7l-14.3-0.4v14.3h15.8v15.7L331,170l1.1-69.5l32.1-0.4L363.9,113.9z
				"/>
			<path class="st11" d="M135.1,191.4c0,0,11.3,0.2,17.2,7c3.1,3.8,7.9,9.7,7.5,22.9c-0.5,15.7-3.7,28.1-23.9,29.2h-10.9l2-59.3
				L135.1,191.4z"/>
			<path class="st11" d="M196,202.7h-16.1l0.5,13l11.6,0.3v10.6l-11.9-0.3v11.9h13.1v13l-24.7-1.8l0.9-57.8l26.7-0.3L196,202.7z"/>
			<path class="st11" d="M230.3,205.9c0,0-4.2-0.6-5.9-0.6c-3,0-6.5,0.9-6.9,3.4c-0.3,1.7,1.6,3.7,3.9,5.7c4.2,3.6,9.1,8.6,9.9,17.7
				c-0.1,11.5-10.1,18.1-17.7,18.1c-2.6,0-6.9-0.3-8.5-1.6l0.8-12.7c0,0,5.2,1.3,8.2,1.3c2.9,0,5.5-1.3,5.5-4.9
				c0-4.8-1.6-6.8-4.6-9.1c-4.2-3.2-8.7-6.9-8.7-15.6c0.4-13.7,14.8-15.9,20.6-15.9c1.6,0,4.3,0.2,4.3,0.2L230.3,205.9z"/>
			<path class="st11" d="M241.9,192.8l21-1v9.8l-5.2,0.5l-0.5,38.5l6-0.2v10l-21.9-0.1l-0.1-9.6l4.9-0.1l1-38.4l-5.2,0.4V192.8z"/>
			<path class="st11" d="M305.2,204.6c0,0-2.7-0.2-4.1-0.2c-5,0-16.2,1.3-17.3,12.5c-0.2,1.5-0.2,2.7-0.2,4.1c0,11.9,5,18.1,11,18.1
				c5.9,0,6.5-11,6.5-11l-8-0.3l-0.2-10.4h18.1c0,0,0.5,3.8,0.5,7.5c0,8.2-1.7,22.1-14.5,24.7c-1.6,0.2-3,0.4-4.6,0.4
				c-13.6,0-19.5-11.3-19.5-30c0-0.7,0-1.8,0.1-2.6c1.3-17.4,15.3-24.8,27.4-24.8c1.3,0,4.6,0.2,5.8,0.3L305.2,204.6z"/>
			<path class="st11" d="M322.4,196l10.2-1.8l15.3,33.8l2.7-36.5l10.5,1.1l-3,56.4l-11.6,0.3l-13.4-23.9l-0.7,25.2l-10.8-1.3
				L322.4,196z"/>
			<path class="st11" d="M395.5,205.9c0,0-4.2-0.6-5.9-0.6c-3,0-6.5,0.9-6.9,3.4c-0.3,1.7,1.6,3.7,3.9,5.7c4.2,3.6,9.1,8.6,9.9,17.7
				c-0.1,11.5-10.1,18.1-17.7,18.1c-2.6,0-6.9-0.3-8.5-1.6l0.8-12.7c0,0,5.2,1.3,8.2,1.3c2.9,0,5.5-1.3,5.5-4.9
				c0-4.8-1.6-6.8-4.6-9.1c-4.2-3.2-8.7-6.9-8.7-15.6c0.4-13.7,14.8-15.9,20.6-15.9c1.6,0,4.3,0.2,4.3,0.2L395.5,205.9z"/>
			<g>
				<g>
					<path class="st11" d="M136.9,211.6c-2.5,0.3-2.1,4.1,0.4,3.8C139.8,215.2,139.4,211.4,136.9,211.6z"/>
					<path class="st11" d="M152,208.7c-2.5,0.3-2.1,4.1,0.4,3.8C154.9,212.3,154.5,208.5,152,208.7z"/>
				</g>
				<path class="st11" d="M151.7,217.2c-0.2-0.2-0.7-0.4-1-0.2c-2.4,1.3-5.1,1.7-7.8,1.1c-0.4-0.1-0.8,0.1-1,0.4
					c-0.2,0.4-0.2,0.7,0,1.1c0.1,0.1,0.1,0.2,0.2,0.3c0,0.1,0,0.1,0.1,0.2c0.8,2.2,3.2,3,5.3,2.4c2-0.6,3.7-2.3,4.3-4.3
					C152,217.9,152,217.5,151.7,217.2z"/>
			</g>
		</g>
		<path class="st12" d="M456.9,279.3c-1.8-0.3,7.7-41.4,6.6-44.4c-0.5-1.2-36.9,14.6-39.6,15.8c-6.8,3-19.6,5.9-24.2,11.4
			c-6.6,7.7-1,21.5,1.8,30c5.1,15.6,18.4,35.6,38.9,34.7c15.8-0.7,30-13.5,44.3-18.6C487.9,307,458.7,279.5,456.9,279.3z"/>
		<path class="st13" d="M53.2,303.1c1.5-1.2-27.1-32.3-27.5-35.5c-0.2-1.4,36.5-6,39.2-6.3c6.7-0.8,17.3-4,23.6-2.7
			c10.1,2,10.4,17.8,9.7,28.3c-0.4,5.6-1.7,11.1-3.1,16.7c-2.2,9.1-9.7,25.3-5.6,33.4c-15.6,4.9-31.8,2.8-47.5,5.9
			C38.3,343.6,51.6,304.3,53.2,303.1z"/>
		<path class="st14" d="M447.7,303.5c-3-9.5-9.6-39.8-19.1-44.1c-8-3.7-22.2,9.5-29.5,12.2c-8.4,3.1-17.1,6.2-25.8,7.9
			c-78,15.5-158.4-21.5-238.2-14.9c-16.9,1.4-34,3.2-50.5,6c-1.5,0.3-3,0.5-4.1,1.4c-1.4,1.1-1.6,2.8-1.8,4.4
			c-1.9,18.6-0.9,33.9,3.7,52.5c1.8,7.1,4.2,14.8,11.3,19.2c5.9,3.6,13.9,4.1,20.9,2.9c7-1.3,13.3-4,19.8-6.5
			c24.7-9.3,52.2-14.1,79.7-10.8c54.7,6.6,109.1,21.2,164.2,16.6C408.8,347.6,458.2,336.5,447.7,303.5z"/>
		<g>
			<g>
				<path class="st6" d="M116.2,297.3c0,0-0.5,0.2-0.9,0.2c-1.7,0.3-7.1,0.6-8.1-6.2c-1-6.9,3.3-8.5,5.4-8.9
					c0.7-0.1,1.5-0.1,1.5-0.1l0.5,2.8c-0.6,0-0.7,0.1-0.9,0.1c-3,0.5-4.2,2.1-3.6,5.6c0.8,4.9,5.5,3.3,5.5,3.3L116.2,297.3z"/>
				<path class="st6" d="M129.2,281c0,0,0.2,5.3,0.2,7.9c0.1,2.5-0.8,6.7-4.1,7.3c-4.8,0.5-5.3-6.1-5.3-6.1l-0.6-8.1l2.8-0.3
					c0,0,0.5,7,0.6,8.2c0.1,0.9,0.6,3.2,2.2,3.1c1.2-0.4,1.3-2.9,1.3-3.3l-0.2-8.6L129.2,281z"/>
				<path class="st6" d="M141.9,282.8l-2.6,0.3l0,12.2l-2.9,0.1l-0.4-12.2l-2.8,0.2l-0.4-2.9l9.1-0.6L141.9,282.8z"/>
				<path class="st6" d="M153.7,282.7l-4.2,0l0.1,3.8l3.1,0.1l0,2.8l-3.1-0.1l0,2.7l3.4,0l0,3.4l-6.5-0.5l0.3-15.2l7-0.1
					L153.7,282.7z"/>
				<path class="st6" d="M166.7,280.4c0,0,3.6-0.1,5.8,0.6c0,0,2.5,0.7,2.4,4c-0.1,4.2-4.9,4.8-4.9,4.8l-0.6,5.9l-2.9,0L166.7,280.4
					z"/>
				<path class="st6" d="M187.8,289.5c-0.5,5.2-3.3,6.8-5.3,6.7c-1.9-0.1-4.4-1.6-4.1-7.2c0-0.3,0-0.6,0.1-0.9l0,0
					c0.5-6.5,4.5-6.8,5-6.7C186.7,281.5,188.2,284.3,187.8,289.5z"/>
				<path class="st6" d="M198.5,285.6c0,0-1.1-0.2-1.5-0.3c-0.8,0-1.7,0.1-1.9,0.8c-0.1,0.4,0.3,1,0.9,1.5c1,1,2.2,2.4,2.3,4.8
					c-0.2,3-3,4.6-4.9,4.4c-0.7,0-1.8-0.2-2.2-0.6l0.4-3.3c0,0,1.3,0.4,2.1,0.5c0.8,0,1.5-0.2,1.5-1.2c0.1-1.3-0.3-1.8-1-2.5
					c-1.1-0.9-2.2-2-2-4.2c0.3-3.6,4.1-3.9,5.7-3.8c0.4,0,1.1,0.1,1.1,0.1L198.5,285.6z"/>
				<path class="st6" d="M204,282.4l2.9,0l-1.5,15.4l-3-0.2L204,282.4z"/>
				<path class="st6" d="M219,286.3l-2.6,0l-1.4,12.1l-2.9-0.2l1-12.1l-2.8-0.1l0-2.9l9.1,0.4L219,286.3z"/>
				<path class="st6" d="M223.9,284l2.9,0l-1.7,15.4l-3-0.3L223.9,284z"/>
				<path class="st6" d="M236.3,300.4l-3.2-0.3l-2.5-15.6l3.2,0.6l1.5,9.6l3.5-9l3,0.4L236.3,300.4z"/>
				<path class="st6" d="M252.5,289.5l-4.2-0.5l-0.3,3.8l3,0.4l-0.3,2.8l-3.1-0.4l-0.3,2.7l3.4,0.4l-0.4,3.4l-6.4-1.2l1.9-15.1
					l7,0.7L252.5,289.5z"/>
				<path class="st6" d="M271.1,304.3c0,0-0.5,0-0.9,0c-1.8-0.2-7-1.5-6-8.3c1.1-6.9,5.6-7.2,7.7-7c0.7,0.1,1.4,0.3,1.4,0.3
					l-0.3,2.8c-0.6-0.1-0.7-0.2-0.9-0.2c-3-0.4-4.6,0.8-5.1,4.3c-0.7,4.9,4.3,4.7,4.3,4.7L271.1,304.3z"/>
				<path class="st6" d="M282.4,305.7l-0.3-3.8l-3-0.3l-2.1,3.7l-2.7-0.4l6.1-14.6l3,0.3l2,15.3L282.4,305.7z"/>
				<path class="st6" d="M291.7,291.7c0,0,3.5,0.6,4.3,0.8c0.5,0.1,3,1.1,2.3,4.4c-0.6,2.5-2.6,3.1-2.6,3.1l2.4,7.7l-3.3-0.5
					l-1.9-5.6l-1.2,5.4l-2.7-0.5L291.7,291.7z"/>
				<path class="st6" d="M306.3,293.4c0,0,2.9,0.4,4.2,2.4c0.7,1.1,1.7,2.8,1.2,6.2c-0.6,4.1-1.9,7.2-7.2,6.8l-2.8-0.4l2.5-15.4
					L306.3,293.4z"/>
				<path class="st6" d="M322.4,299.2c0,0-1.1-0.3-1.5-0.3c-0.8-0.1-1.7,0.1-1.9,0.7c-0.1,0.4,0.3,1,0.9,1.6c1,1.1,2.1,2.5,2.1,4.9
					c-0.4,3-3.2,4.4-5.1,4.2c-0.7-0.1-1.8-0.3-2.2-0.7l0.6-3.3c0,0,1.3,0.5,2.1,0.6c0.8,0.1,1.5-0.2,1.6-1.1
					c0.1-1.2-0.2-1.8-0.9-2.5c-1-1-2.1-2.1-1.8-4.3c0.5-3.6,4.3-3.7,5.9-3.5c0.4,0,1.1,0.2,1.1,0.2L322.4,299.2z"/>
				<path class="st6" d="M341.7,309l0.9,1.7l-1.8,2l-1.1-1.5c-0.5,0.3-1.5,0.8-2.6,0.7c-0.8-0.1-2.1-0.7-2.7-1.7
					c-0.4-0.8-0.7-1.8-0.6-2.5c0.1-1.7,1.9-3.8,1.9-3.8c-0.1-0.2-0.2-0.6-0.3-1c-0.2-0.6-0.3-1.2-0.2-1.8c0.2-2.1,2.2-3.5,3.6-3.4
					c0.6,0,1.1,0.3,1.5,0.8c0.6,0.7,0.8,1.5,0.8,2.4c-0.1,1.3-0.8,2.6-1.5,3.4l1.1,2.2l1.6-1.3l1.5,2.3L341.7,309z"/>
				<path class="st6" d="M363.7,301.4c0,0-0.7-0.1-1.1-0.1c-1.3,0-4.2,0.3-4.6,3.2c0,0.4,0,0.7-0.1,1.1c0,3.1,1.3,4.8,2.8,4.8
					c1.5,0,1.7-2.9,1.7-2.9l-2.1-0.1l0-2.7l4.8,0.1c0,0,0.1,1,0.1,2c0,2.2-0.5,5.8-3.9,6.4c-0.4,0.1-0.8,0.1-1.2,0.1
					c-3.6,0-5.1-3-5-7.9c0-0.2,0-0.5,0-0.7c0.4-4.6,4.1-6.5,7.3-6.4c0.3,0,1.2,0.1,1.5,0.1L363.7,301.4z"/>
				<path class="st6" d="M369.6,298.2l5.5-0.5l0.1,2.6l-1.4,0.2l0.2,10.1l1.6-0.1l0.1,2.6l-5.7,0.2l-0.1-2.5l1.3-0.1l-0.1-10.1
					l-1.4,0.2L369.6,298.2z"/>
				<path class="st6" d="M387.2,299.7l-4.1,0.4l0.3,3.7l3.2-0.2l0.2,2.8l-3.3,0.2l0.4,6l-3.4,0l-0.4-15.1l6.8-0.7L387.2,299.7z"/>
				<path class="st6" d="M398.7,298l-2.7,0.7l1.3,12.2l-2.9,0.5l-1.6-12.1l-2.9,0.6l-0.7-2.8l9.1-1.9L398.7,298z"/>
				<path class="st6" d="M408.9,296.7c0,0-1.1,0.1-1.5,0.2c-0.8,0.2-1.6,0.6-1.6,1.3c0,0.5,0.6,0.9,1.3,1.2c1.3,0.7,2.8,1.7,3.6,3.9
					c0.6,2.9-1.5,5.2-3.5,5.7c-0.7,0.2-1.8,0.3-2.3,0.1l-0.5-3.3c0,0,1.4,0,2.2-0.2c0.7-0.2,1.3-0.6,1.1-1.6
					c-0.3-1.2-0.8-1.6-1.7-2.1c-1.3-0.6-2.6-1.3-3.1-3.5c-0.7-3.5,2.9-4.9,4.4-5.3c0.4-0.1,1.1-0.2,1.1-0.2L408.9,296.7z"/>
			</g>
		</g>
		<g>
			<g>
				<path class="st6" d="M130.9,310.7l-2.6,0.6l1.5,12.1l-2.9,0.5l-1.8-12l-2.7,0.5l-0.7-2.8l8.9-1.7L130.9,310.7z"/>
				<path class="st6" d="M145,314.5c0.4,5.2-2.2,7.2-4.2,7.4c-1.9,0.2-4.6-0.9-5.2-6.5c0-0.3-0.1-0.6-0.1-0.9l0,0
					c-0.5-6.5,3.4-7.4,3.9-7.5C142.5,306.8,144.5,309.3,145,314.5z"/>
				<path class="st6" d="M166.9,320.5l-0.4-7.9l-3.1,3.1l-2.7-2.6l-0.2,7.7l-3.3,0.1l0.6-15.7l5.6,5.9l6-6.4l0.6,15.4L166.9,320.5z"
					/>
				<path class="st6" d="M182,320.4l-0.8-3.7l-3,0.1l-1.6,3.9l-2.7,0l4.4-15.2l3,0l3.7,15L182,320.4z"/>
				<path class="st6" d="M193.6,305.6l-0.9,4.8l3.5-4.5l3.6-0.2l-5.9,8l4.4,7.3l-4.1-0.1l-2.3-4.5l-0.9,4.7l-2.9-0.6l1.8-14.8
					L193.6,305.6z"/>
				<path class="st6" d="M210.2,309.6l-4.2-0.3l-0.2,3.8l3,0.3l-0.2,2.8l-3.1-0.3l-0.2,2.7l3.4,0.3l-0.3,3.4l-6.4-1l1.4-15.1l7,0.5
					L210.2,309.6z"/>
				<path class="st6" d="M231,311.8l-2.6-0.1l-1.7,12.1l-2.9-0.3l1.4-12.1l-2.8-0.2l0-2.9l9.1,0.7L231,311.8z"/>
				<path class="st6" d="M242.5,325.5l-2.8-0.2l0.6-5.2l-3.3-0.4l-1.1,5.1l-2.6-0.4l2.8-14.8l2.8,0.7l-1.1,6.4l2.8,0.5l1.1-6.4
					l2.7,0.2L242.5,325.5z"/>
				<path class="st6" d="M256,314.9l-4.2-0.6l-0.4,3.8l3,0.5l-0.4,2.8l-3.1-0.5l-0.4,2.7l3.4,0.5l-0.5,3.4l-6.4-1.3l2.3-15l7,0.8
					L256,314.9z"/>
				<path class="st6" d="M275.6,330.7l-2.6-5.9l-4.1,4.8l-1.4-15.8l3.4,1l0.4,7.5l2.8-2.6l1.7,3.8l3.4-7.6l3.8,0.4L275.6,330.7z"/>
				<path class="st6" d="M293.7,325.4c-0.8,5.1-3.8,6.5-5.8,6.3c-1.9-0.2-4.3-1.9-3.6-7.5c0-0.3,0.1-0.6,0.1-0.9l0,0
					c1-6.5,5-6.4,5.5-6.4C293.1,317.3,294.5,320.2,293.7,325.4z"/>
				<path class="st6" d="M299.4,317.9c0,0,3.6,0.5,4.3,0.7c0.5,0.1,3,1.1,2.4,4.4c-0.5,2.5-2.5,3.2-2.5,3.2l2.5,7.7l-3.3-0.4l-2-5.6
					l-1.1,5.4l-2.7-0.4L299.4,317.9z"/>
				<path class="st6" d="M313.2,331.4l2.9,0.5l-0.3,3.2l-5.9-0.7l1.3-15l2.8,0.3L313.2,331.4z"/>
				<path class="st6" d="M324.3,320.3c0,0,3,0.3,4.4,2.2c0.7,1,1.9,2.7,1.5,6.2c-0.5,4.1-1.5,7.3-6.9,7.1l-2.9-0.2l1.8-15.5
					L324.3,320.3z"/>
				<path class="st6" d="M348.3,325.5c0,0-1.1-0.2-1.5-0.2c-0.8,0-1.7,0.2-1.8,0.8c-0.1,0.5,0.4,1,1,1.5c1.1,1,2.3,2.3,2.4,4.7
					c-0.1,3-2.8,4.7-4.8,4.6c-0.7,0-1.8-0.1-2.2-0.5l0.3-3.3c0,0,1.3,0.4,2.1,0.4c0.8,0,1.5-0.3,1.5-1.2c0-1.3-0.3-1.8-1.1-2.4
					c-1.1-0.9-2.2-1.9-2.1-4.2c0.2-3.6,4-4,5.6-4c0.4,0,1.1,0.1,1.1,0.1L348.3,325.5z"/>
				<path class="st6" d="M362.1,337.2l-0.2-7.9l-3.2,3.1l-2.6-2.6l-0.3,7.7l-3.3,0l0.9-15.7l5.4,6l6.2-6.2l0.3,15.4L362.1,337.2z"/>
				<path class="st6" d="M370,321.8l2.9-0.3l0.3,15.5l-3,0.1L370,321.8z"/>
				<path class="st6" d="M381.1,333l2.9,0l0.3,3.2l-6,0.4l-1.3-15l2.8-0.2L381.1,333z"/>
				<path class="st6" d="M394.9,321.9l-4.2,0.7l0.8,3.7l3-0.4l0.5,2.7l-3.1,0.4l0.5,2.7l3.4-0.6l0.6,3.4l-6.5,0.6l-2.3-15l6.9-1.3
					L394.9,321.9z"/>
			</g>
		</g>
	</g>
</g>
</svg>
